{"title":"Oculus 2014 HDCAM x264 Pimp4003","uid":10007987,"size":710118403,"categoryP":"video","categoryS":"movies","magnet":"?xt=urn:btih:c2ad341c0c4d610581a379440f0c5ee67b026922&amp;dn=Oculus+2014+HDCAM+x264+Pimp4003&amp;tr=udp%3A%2F%2Ftracker.openbittorrent.com%3A80&amp;tr=udp%3A%2F%2Fopen.demonii.com%3A1337&amp;tr=udp%3A%2F%2Ftracker.coppersurfer.tk%3A6969&amp;tr=udp%3A%2F%2Fexodus.desync.com%3A6969","seeders":11,"leechers":0,"uploader":"shawnmurthy","files":-1,"time":1398064659,"description":"SOURCE: EVIL-DEAD\n\nFOR THE FIRST CAM THIS LOOKS GREAT...AUDIO IS GOOD TOO DINT DO MUCH WORK ON IT...ENJOY\n\nSCREEN SHOTS\n &lt;a href=&quot;\nhttp://pimp4003.net/torrents.php?id=c2ad341c0c4d610581a379440f0c5ee67b026922&quot; rel=&quot;nofollow&quot; target=&quot;_NEW&quot;&gt;\nhttp://pimp4003.net/torrents.php?id=c2ad341c0c4d610581a379440f0c5ee67b026922&lt;/a&gt;\n\nOculus 2014 HDCAM x264 Pimp4003\n &lt;a href=&quot;\nhttp://www.imdb.com/title/tt2388715/&quot; rel=&quot;nofollow&quot; target=&quot;_NEW&quot;&gt;\nhttp://www.imdb.com/title/tt2388715/&lt;/a&gt;\n\nA woman tries to exonerate her brother, who was convicted of murder, by proving that the crime was committed by a supernatural phenomenon.\n\nDirector: Mike Flanagan\nWriters: Mike Flanagan (screenplay), Jeff Howard (screenplay), 2 more credits Â»\nStars: Karen Gillan, Brenton Thwaites, Katee Sackhoff | See full cast and crew Â»\n\nVideo\nID                                       : 1\nFormat                                   : MPEG-4 Visual\nFormat profile                           : Simple@L3\nFormat settings, BVOP                    : No\nFormat settings, QPel                    : No\nFormat settings, GMC                     : No warppoints\nFormat settings, Matrix                  : Default (H.263)\nCodec ID                                 : 20\nDuration                                 : 1h 38mn\nBit rate                                 : 824 Kbps\nWidth                                    : 576 pixels\nHeight                                   : 304 pixels\nDisplay aspect ratio                     : 1.895\nFrame rate mode                          : Variable\nFrame rate                               : 23.976 fps\nMinimum frame rate                       : 23.976 fps\nMaximum frame rate                       : 24.000 fps\nColor space                              : YUV\nChroma subsampling                       : 4:2:0\nBit depth                                : 8 bits\nScan type                                : Progressive\nCompression mode                         : Lossy\nBits/(Pixel*Frame)                       : 0.196\nStream size                              : 582 MiB (86%)\nWriting library                          : ZJMedia MPEG Encoder\n\nAudio\nID                                       : 2\nFormat                                   : AAC\nFormat/Info                              : Advanced Audio Codec\nFormat profile                           : LC\nCodec ID                                 : 40\nDuration                                 : 1h 38mn\nBit rate mode                            : Variable\nBit rate                                 : 128 Kbps\nChannel(s)                               : 2 channels\nChannel positions                        : Front: L R\nSampling rate                            : 48.0 KHz\nCompression mode                         : Lossy\nStream size                              : 90.4 MiB (13%)\n","torrent":{"xt":"urn:btih:c2ad341c0c4d610581a379440f0c5ee67b026922","amp;dn":"Oculus+2014+HDCAM+x264+Pimp4003","amp;tr":["udp%3A%2F%2Ftracker.openbittorrent.com%3A80","udp%3A%2F%2Fopen.demonii.com%3A1337","udp%3A%2F%2Ftracker.coppersurfer.tk%3A6969","udp%3A%2F%2Fexodus.desync.com%3A6969"],"infoHash":"c2ad341c0c4d610581a379440f0c5ee67b026922","infoHashBuffer":{"type":"Buffer","data":[194,173,52,28,12,77,97,5,129,163,121,68,15,12,94,230,123,2,105,34]},"announce":[],"urlList":[]}}